<svg id="visual" viewBox="0 0 960 540" width="960" height="540" xmlns="http://www.w3.org/2000/svg" xmlns:xlink="http://www.w3.org/1999/xlink" version="1.1"><rect x="0" y="0" width="960" height="540" fill="#1D212A"></rect><defs><linearGradient id="grad1_0" x1="43.8%" y1="100%" x2="100%" y2="0%"><stop offset="14.444444444444446%" stop-color="#1d212a" stop-opacity="1"></stop><stop offset="85.55555555555554%" stop-color="#1d212a" stop-opacity="1"></stop></linearGradient></defs><defs><linearGradient id="grad2_0" x1="0%" y1="100%" x2="56.3%" y2="0%"><stop offset="14.444444444444446%" stop-color="#1d212a" stop-opacity="1"></stop><stop offset="85.55555555555554%" stop-color="#1d212a" stop-opacity="1"></stop></linearGradient></defs><g transform="translate(960, 540)"><path d="M-297 0C-289.7 -37.6 -282.4 -75.2 -268.8 -111.4C-255.3 -147.5 -235.7 -182.3 -207.9 -207.9C-180.1 -233.5 -144.3 -250 -108.3 -261.5C-72.3 -273 -36.2 -279.5 0 -286L0 0Z" fill="#0CBB34"></path></g><g transform="translate(0, 0)"><path d="M289 0C288.8 39.8 288.7 79.5 274.4 113.7C260.1 147.8 231.8 176.2 202.9 202.9C174.1 229.7 144.9 254.7 111 267.9C77.1 281.2 38.5 282.6 0 284L0 0Z" fill="#0CBB34"></path></g></svg>